<?xml version="1.0" encoding="UTF-8" standalone="no"?><!DOCTYPE svg PUBLIC "-//W3C//DTD SVG 1.1//EN" "http://www.w3.org/Graphics/SVG/1.1/DTD/svg11.dtd"><svg width="100%" height="100%" viewBox="0 0 1067 1067" version="1.1" xmlns="http://www.w3.org/2000/svg" xmlns:xlink="http://www.w3.org/1999/xlink" xml:space="preserve" xmlns:serif="http://www.serif.com/" style="fill-rule:evenodd;clip-rule:evenodd;stroke-linejoin:round;stroke-miterlimit:2;"><path d="M1066.67,533.333c-0,294.584 -238.75,533.334 -533.334,533.334c-294.583,-0 -533.333,-238.75 -533.333,-533.334c0,-294.583 238.75,-533.333 533.333,-533.333c294.584,0 533.334,238.75 533.334,533.333Z" style="fill:#545555;fill-rule:nonzero;"/><g><rect x="295.417" y="329.583" width="64.167" height="446.25" style="fill:#fff;fill-rule:nonzero;"/><path d="M453.75,329.583l173.333,0c165,0 237.5,117.917 237.5,223.334c0,114.583 -89.583,223.333 -236.666,223.333l-174.167,0l0,-446.667Zm64.167,388.75l102.083,0c145.417,0 178.75,-110.416 178.75,-165.416c0,-89.584 -57.083,-165.417 -182.083,-165.417l-98.75,0l-0,330.833Z" style="fill:#fff;fill-rule:nonzero;"/><path d="M369.583,236.667c0,22.916 -18.75,42.083 -42.083,42.083c-23.333,0 -42.083,-19.167 -42.083,-42.083c-0,-23.334 18.75,-42.084 42.083,-42.084c23.333,0 42.083,19.167 42.083,42.084Z" style="fill:#fff;fill-rule:nonzero;"/></g></svg>